<?xml version="1.0" encoding="UTF-8" standalone="no"?>
<svg
   xmlns:dc="http://purl.org/dc/elements/1.1/"
   xmlns:cc="http://creativecommons.org/ns#"
   xmlns:rdf="http://www.w3.org/1999/02/22-rdf-syntax-ns#"
   xmlns:svg="http://www.w3.org/2000/svg"
   xmlns="http://www.w3.org/2000/svg"
   height="50"
   width="50"
   version="1.1"
   viewBox="0 0 64 64"
   id="Layer_1"
   data-name="Layer 1">
  <metadata
     id="metadata25">
    <rdf:RDF>
      <cc:Work
         rdf:about="">
        <dc:format>image/svg+xml</dc:format>
        <dc:type
           rdf:resource="http://purl.org/dc/dcmitype/StillImage" />
      </cc:Work>
    </rdf:RDF>
  </metadata>
  <defs
     id="defs4">
    <style
       id="style2">.cls-1{fill:#ffa400;}</style>
  </defs>
  <title
     id="title6" />
  <path
     style="fill:#ffa400"
     id="path8"
     d="M 18,3.5 A 1.5,1.5 0 1 0 19.5,5 1.5,1.5 0 0 0 18,3.5 Z m 0,2 A 0.5,0.5 0 1 1 18.5,5 0.5,0.5 0 0 1 18,5.5 Z"
     class="cls-1" />
  <circle
     style="fill:#ffa400"
     id="circle10"
     r="1"
     cy="5"
     cx="22"
     class="cls-1" />
  <circle
     style="fill:#ffa400"
     id="circle12"
     r="1"
     cy="5"
     cx="14"
     class="cls-1" />
  <path
     style="fill:#ffa400"
     id="path14"
     d="m 63,22 h -0.39 a 3,3 0 0 0 -2.93,2.36 L 58.56,29.5 H 22.87 l -2,-3.95 a 1,1 0 0 0 -1.78,0.9 l 9.46,18.93 A 3,3 0 0 0 30,51 h 6.56 a 3.91,3.91 0 0 0 -0.56,2 4,4 0 0 0 8,0 3.91,3.91 0 0 0 -0.56,-2 h 5.12 A 3.91,3.91 0 0 0 48,53 4,4 0 0 0 56,53 3.91,3.91 0 0 0 55.44,51 H 56 a 3,3 0 0 0 1.19,-5.75 l 4.44,-20.46 a 1,1 0 0 1 1,-0.79 H 63 a 1,1 0 0 0 0,-2 z M 38.38,45 37.57,38.5 H 48.5 V 45 Z m -1,0 h -6.76 l -3.25,-6.5 h 9.19 z m 0.07,-7.5 -0.87,-7 H 48.5 v 7 z m 12.06,1 h 7.11 L 55.19,45 H 49.5 Z m 7.32,-1 H 49.5 v -7 h 8.85 z m -21.26,-7 0.87,7 h -9.57 l -3.5,-7 z M 42,53 a 2,2 0 1 1 -2,-2 2,2 0 0 1 2,2 z m 12,0 a 2,2 0 1 1 -2,-2 2,2 0 0 1 2,2 z m 2,-4 H 30 a 1,1 0 0 1 0,-2 h 26 a 1,1 0 0 1 0,2 z"
     class="cls-1" />
  <circle
     style="fill:#ffa400"
     id="circle16"
     r="1"
     cy="53"
     cx="40"
     class="cls-1" />
  <circle
     style="fill:#ffa400"
     id="circle18"
     r="1"
     cy="53"
     cx="52"
     class="cls-1" />
  <path
     style="fill:#ffa400"
     id="path20"
     d="m 34,55 a 1,1 0 0 0 -1,1 v 3 a 3,3 0 0 1 -3,3 H 6 A 3,3 0 0 1 3,59 V 5.5 H 6 A 3.45,3.45 0 0 1 8.65,6.85 4.34,4.34 0 0 0 12,8.5 H 24 A 4.34,4.34 0 0 0 27.35,6.85 3.45,3.45 0 0 1 30,5.5 h 3 V 26 a 1,1 0 0 0 2,0 V 5 A 5,5 0 0 0 30,0 H 6 A 5,5 0 0 0 1,5 v 4 a 1,1 0 0 0 -1,1 v 4 a 1,1 0 0 0 1,1 v 2 a 1,1 0 0 0 -1,1 v 4 a 1,1 0 0 0 1,1 v 36 a 5,5 0 0 0 5,5 h 24 a 5,5 0 0 0 5,-5 V 56 A 1,1 0 0 0 34,55 Z M 26.65,6.15 A 3.45,3.45 0 0 1 24,7.5 H 12 A 3.45,3.45 0 0 1 9.35,6.15 4.34,4.34 0 0 0 6,4.5 H 3.05 A 3,3 0 0 1 6,2 h 24 a 3,3 0 0 1 3,2.5 h -3 a 4.34,4.34 0 0 0 -3.35,1.65 z"
     class="cls-1" />
</svg>
